{"title":"Bengali Movie Kagoger Bou  (2011)","uid":6452991,"size":363252574,"categoryP":"video","categoryS":"movies","magnet":"?xt=urn:btih:4d75e7796626bbf3126f1096b6bbe5c5457ba284&amp;dn=Bengali+Movie+Kagoger+Bou++%282011%29&amp;tr=udp%3A%2F%2Ftracker.openbittorrent.com%3A80&amp;tr=udp%3A%2F%2Fopen.demonii.com%3A1337&amp;tr=udp%3A%2F%2Ftracker.coppersurfer.tk%3A6969&amp;tr=udp%3A%2F%2Fexodus.desync.com%3A6969","seeders":0,"leechers":1,"uploader":"Robin5555","files":2,"time":1307496534,"description":"------------------------------:TPB IS BENEDICTION TO ME :--------------------------\n\n\nScreen Link :---\n &lt;a href=&quot;\nhttp://www.shotpix.com/images/51834946650463292184.jpg&quot; rel=&quot;nofollow&quot; target=&quot;_NEW&quot;&gt;\nhttp://www.shotpix.com/images/51834946650463292184.jpg&lt;/a&gt;\n\n\nGeneral Info :---\n\n\nFormat                           : Matroska\nFile size                        : 346 MiB\nDuration                         : 2h 3mn\nOverall bit rate                 : 393 Kbps\nMovie name                       : P\nEncoded date                     : UTC 2011-06-07 22:54:51\nWriting application              : mkvmerge v4.6.0 ('Still Crazy After All These Years') built on Mar 10 2011 02:50:32\nWriting library                  : libebml v1.2.0 + libmatroska v1.1.0\n\nVideo\nID                               : 1\nFormat                           : AVC\nFormat/Info                      : Advanced Video Codec\nFormat profile                   : &lt;a class=&quot;__cf_email__&quot; href=&quot;/cdn-cgi/l/email-protection&quot; data-cfemail=&quot;d49cbdb3bc9498e0fae4&quot;&gt;[email&amp;#160;protected]&lt;/a&gt;&lt;script cf-hash='f9e31' type=&quot;text/javascript&quot;&gt;\n/* &lt;![CDATA[ */!function(){try{var t=&quot;currentScript&quot;in document?document.currentScript:function(){for(var t=document.getElementsByTagName(&quot;script&quot;),e=t.length;e--;)if(t[e].getAttribute(&quot;cf-hash&quot;))return t[e]}();if(t&amp;&amp;t.previousSibling){var e,r,n,i,c=t.previousSibling,a=c.getAttribute(&quot;data-cfemail&quot;);if(a){for(e=&quot;&quot;,r=parseInt(a.substr(0,2),16),n=2;a.length-n;n+=2)i=parseInt(a.substr(n,2),16)^r,e+=String.fromCharCode(i);e=document.createTextNode(e),c.parentNode.replaceChild(e,c)}}}catch(u){}}();/* ]]&gt; */&lt;/script&gt;\nFormat settings, CABAC           : Yes\nFormat settings, ReFrames        : 3 frames\nCodec ID                         : V_MPEG4/ISO/AVC\nDuration                         : 2h 3mn\nBit rate mode                    : Variable\nBit rate                         : 168 Kbps\nMaximum bit rate                 : 25.0 Mbps\nWidth                            : 640 pixels\nHeight                           : 432 pixels\nDisplay aspect ratio             : 3:2\nFrame rate                       : 29.970 fps\nColor space                      : YUV\nChroma subsampling               : 4:2:0\nBit depth                        : 8 bits\nScan type                        : Progressive\nBits/(Pixel*Frame)               : 0.020\nStream size                      : 142 MiB (41%)\n\n\nAudio\nID                               : 2\nFormat                           : AC-3\nFormat/Info                      : Audio Coding 3\nMode extension                   : CM (complete main)\nCodec ID                         : A_AC3\nDuration                         : 2h 3mn\nBit rate mode                    : Constant\nBit rate                         : 224 Kbps\nChannel(s)                       : 2 channels\nChannel positions                : Front: L R\nSampling rate                    : 44.1 KHz\nBit depth                        : 16 bits\nCompression mode                 : Lossy\nStream size                      : 197 MiB (57%)\n\n\n\n\n------------------------------:TPB IS BENEDICTION TO ME :--------------------------\n\n\n\n\n","torrent":{"xt":"urn:btih:4d75e7796626bbf3126f1096b6bbe5c5457ba284","amp;dn":"Bengali+Movie+Kagoger+Bou++%282011%29","amp;tr":["udp%3A%2F%2Ftracker.openbittorrent.com%3A80","udp%3A%2F%2Fopen.demonii.com%3A1337","udp%3A%2F%2Ftracker.coppersurfer.tk%3A6969","udp%3A%2F%2Fexodus.desync.com%3A6969"],"infoHash":"4d75e7796626bbf3126f1096b6bbe5c5457ba284","infoHashBuffer":{"type":"Buffer","data":[77,117,231,121,102,38,187,243,18,111,16,150,182,187,229,197,69,123,162,132]},"announce":[],"urlList":[]}}